<?xml version="1.0" standalone="no"?>
<!DOCTYPE svg PUBLIC "-//W3C//DTD SVG 20010904//EN"
 "http://www.w3.org/TR/2001/REC-SVG-20010904/DTD/svg10.dtd">
<svg version="1.0" xmlns="http://www.w3.org/2000/svg"
 width="500.000000pt" height="500.000000pt" viewBox="0 0 500.000000 500.000000"
 preserveAspectRatio="xMidYMid meet">
<metadata>
Created by potrace 1.14, written by Peter Selinger 2001-2017
</metadata>
<g transform="translate(0.000000,500.000000) scale(0.100000,-0.100000)"
fill="#000000" stroke="none">
<path d="M2596 4972 c-3 -2 -33 -4 -68 -4 -35 0 -69 -5 -77 -12 -11 -8 -13 -8
-8 0 8 13 -111 13 -132 0 -6 -4 -11 -2 -11 5 0 8 -4 8 -15 -1 -12 -10 -15 -10
-15 1 0 9 -3 10 -8 4 -4 -6 -49 -10 -99 -10 -51 0 -93 -3 -93 -6 0 -4 -12 -7
-27 -7 -28 1 -76 -6 -143 -18 -19 -4 -45 -7 -57 -8 -13 0 -23 -5 -23 -10 0 -4
-9 -6 -20 -3 -11 3 -20 2 -20 -2 0 -4 -12 -8 -26 -9 -14 -1 -31 -5 -37 -9 -7
-4 -15 -8 -19 -9 -5 -1 -9 -2 -10 -4 -2 -1 -10 -3 -18 -5 -38 -9 -195 -69
-198 -76 -2 -4 -10 -5 -18 -2 -8 3 -14 0 -14 -6 0 -6 -7 -8 -15 -5 -8 4 -15 1
-15 -5 0 -6 -3 -10 -7 -9 -5 2 -30 -7 -58 -19 -27 -12 -54 -21 -58 -22 -5 0
-15 -8 -24 -18 -8 -10 -12 -13 -9 -7 3 6 -26 -4 -64 -22 -39 -19 -71 -33 -73
-32 -2 2 -11 -5 -21 -15 -10 -9 -22 -15 -27 -12 -5 4 -9 1 -9 -5 0 -6 -5 -8
-10 -5 -5 3 -10 1 -10 -5 0 -6 -4 -9 -9 -6 -5 3 -12 -1 -15 -10 -3 -9 -12 -14
-19 -11 -8 3 -19 -4 -25 -14 -7 -10 -15 -18 -20 -17 -14 4 -52 -13 -52 -23 0
-6 -4 -8 -9 -5 -5 3 -12 -1 -15 -10 -3 -9 -11 -14 -18 -12 -7 3 -22 -6 -34
-19 -12 -13 -25 -23 -29 -23 -4 0 -18 -11 -31 -26 -13 -14 -24 -22 -24 -19 0
4 -7 0 -15 -9 -8 -8 -15 -20 -15 -26 0 -6 -5 -8 -11 -5 -6 4 -13 -2 -16 -14
-3 -11 -9 -18 -14 -15 -8 5 -13 -9 -10 -29 0 -4 -5 -6 -11 -5 -7 2 -12 -3 -10
-9 1 -7 -3 -13 -9 -13 -5 0 -15 -13 -20 -30 -6 -16 -15 -30 -20 -30 -5 0 -9
-5 -9 -12 0 -6 -11 -26 -25 -43 -13 -18 -21 -35 -18 -39 4 -3 1 -6 -5 -6 -7 0
-12 -7 -12 -15 0 -8 -4 -15 -9 -15 -6 0 -8 -9 -6 -20 2 -11 0 -18 -6 -15 -8 5
-11 -8 -8 -31 0 -4 -4 -10 -10 -13 -9 -6 -23 -105 -21 -146 2 -50 9 -78 21
-86 11 -7 10 -9 -5 -9 -17 0 -17 -2 -2 -24 10 -16 12 -27 5 -31 -7 -5 -6 -11
1 -20 7 -8 9 -19 6 -24 -4 -5 -2 -12 2 -15 5 -3 8 -15 7 -28 -1 -12 4 -33 11
-46 7 -14 10 -31 7 -38 -3 -8 0 -14 6 -14 6 0 11 -7 11 -16 0 -8 4 -13 8 -10
5 3 9 -1 9 -9 0 -8 -5 -11 -11 -8 -6 4 -5 0 1 -9 7 -8 10 -18 6 -21 -3 -4 -1
-7 6 -7 7 0 10 -3 8 -7 -7 -11 79 -93 88 -85 4 4 6 3 4 -3 -3 -12 22 -65 31
-65 3 0 7 -16 8 -35 2 -20 -2 -35 -8 -35 -6 0 -8 -4 -5 -10 3 -5 1 -10 -6 -10
-7 0 -9 -3 -6 -7 4 -3 -1 -15 -10 -25 -14 -16 -17 -41 -19 -141 0 -67 3 -132
8 -145 6 -17 5 -21 -4 -16 -6 4 -8 3 -4 -4 3 -6 9 -30 12 -54 3 -24 10 -61 16
-83 5 -22 10 -41 9 -43 -1 -1 6 -16 14 -32 8 -16 15 -31 15 -32 -1 -4 8 -33
23 -72 13 -35 16 -61 23 -191 2 -55 9 -101 14 -103 6 -2 10 -13 10 -23 0 -27
28 -79 42 -79 6 0 9 -3 5 -6 -8 -9 48 -54 67 -54 9 0 16 -3 16 -7 0 -12 73
-13 87 -1 7 6 13 7 13 4 0 -4 21 7 46 25 37 25 48 29 55 18 8 -13 10 -21 8
-35 0 -4 3 -10 8 -13 15 -11 33 -50 33 -71 0 -14 4 -19 12 -14 6 4 8 3 5 -3
-4 -6 0 -30 8 -52 8 -23 16 -52 17 -64 2 -12 6 -26 9 -32 3 -5 7 -28 8 -50 2
-22 6 -44 11 -50 4 -5 6 -19 4 -29 -1 -11 0 -24 3 -30 4 -5 7 -21 9 -35 2 -25
10 -63 14 -68 2 -2 4 -12 5 -23 1 -11 4 -22 5 -25 1 -3 3 -8 4 -12 2 -5 8 -28
16 -53 7 -25 13 -48 12 -52 -1 -5 2 -8 6 -8 4 0 8 -10 9 -22 1 -11 6 -24 10
-27 4 -3 21 -31 37 -61 27 -49 30 -66 33 -160 7 -248 3 -318 -20 -349 -39 -55
-74 -91 -85 -91 -7 0 -10 -5 -7 -10 3 -5 1 -10 -4 -10 -10 0 -23 -10 -75 -55
-16 -13 -47 -33 -66 -42 -8 -4 -20 -14 -27 -22 -7 -9 -13 -12 -13 -7 0 4 -15
-3 -34 -18 -19 -14 -41 -26 -49 -26 -8 0 -20 -7 -27 -15 -7 -8 -16 -12 -21 -9
-5 3 -9 0 -9 -5 0 -6 -3 -10 -8 -9 -7 3 -116 -34 -157 -52 -11 -5 -54 -19 -95
-30 -41 -12 -84 -25 -95 -30 -11 -5 -44 -14 -73 -21 -28 -7 -52 -17 -52 -21 0
-5 -4 -7 -9 -4 -5 4 -22 1 -38 -6 -15 -6 -35 -12 -43 -13 -8 0 -31 -6 -51 -13
-20 -7 -45 -15 -55 -17 -56 -13 -110 -29 -114 -34 -3 -3 -18 -7 -35 -9 -16 -2
-32 -8 -33 -13 -2 -5 -7 -7 -12 -4 -5 3 -21 0 -37 -7 -15 -6 -31 -11 -35 -10
-5 1 -8 -41 -8 -93 l0 -95 2500 0 2500 0 0 23 c0 15 -11 29 -32 42 -51 31
-106 54 -112 47 -3 -3 -6 -1 -6 5 0 9 -34 24 -49 22 -2 0 -7 4 -10 9 -7 10
-67 43 -77 41 -4 0 -10 3 -13 8 -3 4 -37 24 -76 43 -38 19 -72 37 -75 40 -3 3
-25 16 -50 29 -25 14 -47 27 -50 30 -3 3 -15 12 -27 19 -13 6 -33 18 -45 25
-13 6 -25 14 -28 17 -11 11 -70 50 -75 50 -3 0 -15 8 -26 18 -10 11 -32 25
-47 33 -33 17 -34 18 -102 79 -30 28 -58 50 -62 50 -5 0 -8 7 -8 17 0 9 -3 13
-7 10 -3 -4 -21 16 -40 43 -18 28 -38 50 -44 50 -6 0 -8 4 -4 9 3 5 -1 15 -8
23 -7 7 -21 30 -30 50 -10 21 -23 38 -29 38 -6 0 -9 3 -5 6 3 4 -7 26 -23 50
-17 23 -30 47 -30 53 0 6 -4 11 -9 11 -5 0 -11 8 -15 17 -3 10 -19 41 -35 70
-16 28 -26 54 -23 57 3 3 0 6 -6 6 -7 0 -12 8 -12 18 0 10 -4 22 -8 27 -5 6
-19 37 -32 70 -13 33 -28 63 -33 66 -15 11 -9 122 12 212 6 27 9 52 6 57 -3 4
-1 10 4 12 4 1 12 28 15 58 11 86 14 105 16 105 2 0 5 20 14 95 4 30 9 71 12
90 3 19 6 45 6 58 1 12 6 22 10 22 4 0 8 8 8 18 0 29 28 22 41 -10 6 -15 19
-28 28 -29 9 0 26 -2 38 -5 31 -5 63 9 102 45 18 17 37 31 43 31 5 0 6 5 3 10
-3 5 -1 10 5 10 6 0 9 4 6 9 -3 5 5 16 19 25 20 13 65 89 65 110 0 2 5 17 12
33 6 15 12 30 13 33 1 3 5 14 9 25 29 76 35 95 30 95 -4 0 -2 6 3 13 5 6 16
32 23 57 7 25 18 51 23 58 5 6 6 12 1 12 -5 0 -4 4 1 8 9 7 32 59 40 92 2 8 9
29 15 45 6 17 14 50 16 75 3 25 7 51 9 58 2 6 0 12 -5 12 -6 0 -10 11 -10 23
0 13 -3 27 -7 30 -3 4 -8 18 -10 32 -6 44 -12 80 -13 80 -1 0 -3 9 -5 19 -9
47 -16 64 -35 86 -11 13 -20 19 -20 14 0 -5 -5 -1 -11 10 -6 10 -14 14 -18 10
-10 -14 -52 -36 -58 -30 -3 3 -2 13 2 23 5 10 7 22 6 26 -1 5 3 6 9 2 5 -3 10
-1 10 6 0 7 3 9 7 6 3 -4 14 7 24 23 11 17 26 30 34 30 8 0 15 5 15 11 0 5 4
7 10 4 6 -3 7 1 4 9 -5 12 0 16 17 16 16 0 20 3 11 8 -9 6 -5 15 15 33 l28 24
-20 -25 c-18 -22 -18 -23 -1 -10 18 14 41 58 37 73 -1 5 4 5 10 2 8 -5 8 -10
0 -18 -6 -6 -11 -15 -11 -21 0 -5 6 -1 14 9 8 11 11 26 8 34 -4 10 -1 12 7 6
10 -6 11 -2 6 15 -4 14 -3 20 3 16 15 -9 22 20 9 34 -9 10 -9 11 0 6 6 -3 14
-2 18 4 3 5 1 10 -4 10 -6 0 -11 5 -11 11 0 5 4 8 9 4 5 -3 13 0 17 6 4 8 3 9
-4 5 -19 -11 -14 5 6 21 9 8 11 12 5 8 -7 -3 -13 -1 -13 4 0 6 6 11 13 11 8 0
7 4 -3 10 -12 8 -12 10 -1 10 9 0 12 9 9 29 -2 16 0 28 6 27 6 -1 11 4 11 9 0
6 -6 9 -12 9 -7 -1 -10 2 -7 7 3 5 12 9 19 9 9 0 12 6 8 17 -4 10 -2 14 5 9 7
-4 10 1 7 14 -2 11 1 22 6 25 5 4 7 11 4 16 -4 5 0 9 7 9 9 0 9 3 -2 10 -10 6
-15 26 -15 59 0 27 3 47 7 45 4 -2 9 0 13 6 3 5 -2 10 -12 11 -11 0 -13 3 -5
6 10 4 9 9 -5 20 -10 8 -12 12 -6 8 9 -4 12 2 11 19 -1 15 -6 26 -11 26 -5 0
-7 9 -4 20 3 10 -1 24 -9 31 -8 6 -11 15 -8 20 3 5 0 9 -5 9 -6 0 -10 3 -9 8
4 13 -13 52 -23 52 -5 0 -8 3 -7 8 2 10 -24 64 -40 81 -8 8 -18 25 -23 38 -5
13 -13 22 -17 19 -5 -3 -9 1 -10 9 -1 8 -3 22 -4 29 -1 8 -5 14 -10 13 -5 -1
-16 11 -26 27 -21 34 -110 126 -123 126 -5 0 -9 7 -9 16 0 8 -5 12 -10 9 -6
-3 -13 1 -16 9 -3 9 -10 13 -15 11 -5 -3 -16 3 -26 14 -9 11 -20 18 -25 15 -4
-3 -8 -1 -8 4 0 9 -50 37 -62 34 -5 -1 -8 3 -8 8 0 6 -9 10 -20 10 -11 0 -23
6 -26 14 -3 8 -13 13 -22 12 -9 -2 -23 4 -30 13 -8 9 -11 10 -7 4 4 -9 1 -11
-9 -7 -9 3 -14 9 -12 13 3 4 -6 8 -20 9 -13 1 -35 9 -48 17 -12 8 -26 12 -29
8 -4 -3 -7 -1 -7 5 0 7 -9 12 -19 12 -11 0 -23 5 -26 10 -4 6 -10 8 -15 5 -4
-3 -13 2 -20 10 -7 8 -21 15 -32 15 -10 0 -28 9 -40 20 -12 11 -28 20 -35 20
-7 0 -13 5 -13 10 0 6 -9 10 -20 10 -11 0 -20 5 -20 11 0 5 -4 7 -10 4 -5 -3
-10 -1 -10 4 0 6 -3 10 -7 9 -5 -1 -26 6 -48 16 -21 9 -48 19 -60 21 -11 2
-20 4 -20 5 0 1 -9 3 -19 5 -10 2 -22 8 -25 13 -6 8 -21 12 -63 13 -10 0 -18
4 -18 8 0 8 -7 9 -55 12 -14 1 -25 4 -25 8 0 7 -26 12 -77 15 -18 0 -33 3 -33
6 0 3 -17 6 -37 7 -77 4 -118 9 -128 14 -5 3 -27 5 -48 5 -20 -1 -37 2 -37 6
0 4 -10 4 -21 -1 -12 -4 -41 -4 -65 -1 -24 4 -46 5 -48 2z m1829 -1219 c-2
-10 -4 -20 -5 -23 -1 -3 -2 -9 -1 -13 1 -5 -3 -6 -9 -2 -6 3 -7 12 -3 18 4 7
8 15 9 20 3 14 4 17 8 17 2 0 3 -8 1 -17z"/>
<path d="M4439 3818 c-5 -18 -6 -38 -1 -34 7 8 12 36 6 36 -2 0 -4 -1 -5 -2z"/>
<path d="M4160 3221 c-7 -15 -7 -19 5 -17 8 1 18 6 22 11 5 4 2 5 -6 0 -11 -6
-13 -4 -8 8 9 23 0 21 -13 -2z"/>
</g>
</svg>
